<svg xmlns="http://www.w3.org/2000/svg" xmlns:xlink="http://www.w3.org/1999/xlink" viewBox="0 0 95.481 57.38836328424799" height="57.38836328424799" width="95.481" data-background-color="#ffffff" preserveAspectRatio="xMidYMid meet" id="tight-bounds"><g><svg viewBox="0 0 95.481 57.38836328424799" height="57.38836328424799" width="95.481"><g><svg viewBox="0 0 95.481 57.38836328424799" height="57.38836328424799" width="95.481"><g id="textblocktransform"><svg viewBox="0 0 95.481 57.38836328424799" height="57.38836328424799" width="95.481" id="textblock"><g><svg viewBox="0 0 95.481 57.38836328424799" height="57.38836328424799" width="95.481"><g><svg viewBox="0 0 95.481 57.38836328424799" height="57.38836328424799" width="95.481"><g><svg xmlns="http://www.w3.org/2000/svg" xmlns:xlink="http://www.w3.org/1999/xlink" version="1.1" x="0" y="0" viewBox="3.131999969482422 23.283000946044922 95.86892700195312 57.621524810791016" enable-background="new 0 0 100 100" xml:space="preserve" height="57.38836328424799" width="95.481" class="icon-icon-0" data-fill-palette-color="accent" id="icon-0"><path d="M93.65 28.367L85.3 24.768C83.249 24.029 81.19 24.429 79.125 25.968L78.086 26.917A68 68 0 0 1 74.043 30.758C71.991 32.116 70.05 33.197 68.22 34.007A8.5 8.5 0 0 0 64.715 36.922C64.376 37.468 63.962 38.311 63.472 39.453 63.314 39.884 63.012 41.135 62.57 43.2 62.132 45.367 61.588 47.281 60.938 48.942 60.418 50.463 59.292 53.23 57.568 57.251 56.638 59.602 56.226 61.332 56.33 62.45 56.451 63.547 57.12 64.401 58.337 65.011 59.013 65.358 59.775 65.384 60.621 65.091 61.843 64.752 62.809 63.796 63.522 62.223A298 298 0 0 1 65.234 58.244C65.794 56.936 66.785 55.018 68.203 52.488A15.3 15.3 0 0 1 69.899 50.129L70.789 49.319 70.302 50.413C67.594 56.864 65.793 61.081 64.898 63.062 64.002 64.979 62.84 66.219 61.413 66.783 59.997 67.29 58.727 67.314 57.6 66.856 56.993 66.582 56.292 66.1 55.496 65.413A221 221 0 0 1 52.277 68.642C47.183 70.182 44.43 71.033 44.018 71.192 43.106 71.605 42.274 72.13 41.524 72.775 40.75 73.516 40.292 74.195 40.148 74.811 39.896 75.41 40.015 76.173 40.507 77.101 41.091 77.98 42.53 78.192 44.827 77.744L57.285 75.639C61.457 72.632 65.685 69.861 69.97 67.324A4.8 4.8 0 0 0 72.042 65.014C73.255 61.726 74.769 58.123 76.575 54.206A260 260 0 0 1 79.25 48.649C80.953 45.649 82.568 43.341 84.095 41.725L84.105 41.703C85.888 40.031 90.481 37.124 97.886 32.983 100.257 31.604 98.847 30.066 93.65 28.367" fill="#2ecc40" data-fill-palette-color="accent"/><path d="M51.767 57.209V57.101C51.601 53.939 51.094 52.088 50.249 51.545 47.407 51.622 45.268 50.996 43.833 49.667A813 813 0 0 1 41.455 44.519C40.953 43.505 40.119 42.58 38.951 41.741 37.908 40.995 36.598 40.321 35.023 39.715 35.023 39.392 35.02 39.073 35.016 38.76 34.934 28.442 34.073 23.283 32.434 23.283 31.694 23.302 31.243 23.412 31.08 23.612 26.241 26.181 22.566 31.23 20.056 38.76L20.033 38.823C18.572 38.989 16.454 40.308 13.679 42.781A18.6 18.6 0 0 0 9.846 47.461C7.283 51.925 6.543 57.59 7.623 64.455 6.663 67.657 5.166 70.416 3.132 72.732A33.7 33.7 0 0 0 9.845 77.583C16.691 81.334 25.449 81.908 36.118 79.305 36.521 75.836 37.264 73.367 38.348 71.896 39.431 70.424 40.232 69.56 40.75 69.306 47.157 68.022 50.828 63.989 51.767 57.209M38.951 50.551C38.807 51.042 38.541 51.498 38.153 51.92 37.537 52.535 36.801 52.844 35.946 52.844 35.08 52.844 34.355 52.535 33.771 51.92 33.166 51.274 32.863 50.517 32.863 49.651S33.165 48.081 33.771 47.538C34.355 46.892 35.08 46.568 35.946 46.568 36.801 46.568 37.537 46.891 38.153 47.538A2.7 2.7 0 0 1 38.951 48.767C39.034 49.041 39.076 49.336 39.076 49.652 39.076 49.961 39.035 50.262 38.951 50.551" fill="#2ecc40" data-fill-palette-color="accent"/></svg></g></svg></g></svg></g></svg></g></svg></g></svg></g><defs/></svg>